<svg id="Layer_3" enable-background="new 0 0 64 64" height="512" viewBox="0 0 64 64" width="512" xmlns="http://www.w3.org/2000/svg"><g><path d="m17 17v-5c0-2.209 1.791-4 4-4h22c2.209 0 4 1.791 4 4v5" fill="#8892a0"/><path d="m26.18 8h-5.18c-2.209 0-4 1.791-4 4v5h15.408c-1.349-3.477-3.499-6.553-6.228-9z" fill="#a8b0bc"/><path d="m52 38-10 14h-20l-10-14" fill="#a8b0bc"/><path d="m30.396 38h-18.396l6.782 9.495c4.831-1.821 8.901-5.186 11.614-9.495z" fill="#c1c8d1"/><path d="m52 38h-40v-19c0-1.657 1.343-3 3-3h34c1.657 0 3 1.343 3 3z" fill="#758190"/><path d="m34 25.5c0-3.382-.72-6.594-2.006-9.5h-16.994c-1.657 0-3 1.343-3 3v19h18.396c2.28-3.621 3.604-7.905 3.604-12.5z" fill="#8892a0"/><path d="m51 36h4c1.105 0 2 .895 2 2v20h4v-21c0-2.761-2.239-5-5-5h-5z" fill="#d5cec2"/><path d="m29 8v-3c0-1.657 1.343-3 3-3 1.657 0 3 1.343 3 3v3" fill="#243242"/><path d="m12 38v24h4l2.067-15.506z" fill="#4d5d7a"/><path d="m22 52v2c0 1.105.895 2 2 2h16c1.105 0 2-.895 2-2v-2z" fill="#758190"/><path d="m36 11v10h-8v-10h-2v51h2v-15h8v15h2v-51zm0 11.999v2h-8v-2zm-8 14.001v-2h8v2zm8 1.999v2h-8v-2zm-8-5.999v-2h8v2zm0-4v-2h8v2zm0 16v-2h8v2z" fill="#e7e4dd"/><path d="m52 38v24h-4l-2.067-15.506z" fill="#4d5d7a"/><path d="m56 58v2.999h-48v-4.999h-6v4.999 2.001h60v-1-1.001-2.999z" fill="#243242"/><path d="m62 56.999v-20c0-3.309-2.691-6-6-6h-3v-11.999c0-2.206-1.794-4-4-4h-1v-3c0-2.757-2.243-5-5-5h-7v-2c0-2.206-1.794-4-4-4h-21c-3.86 0-7 3.14-7 7v47h-2c-.552 0-1 .448-1 1v6c0 .552.448 1 1 1h60c.552 0 1-.448 1-1v-4c0-.553-.448-1.001-1-1.001zm-6-23.999c2.206 0 4 1.794 4 4v20h-2v-19c0-1.654-1.346-3-3-3h-2v-2zm-30-16v20h-13v-18c0-1.103.897-2 2-2zm25 43.999h-2.124l-1.884-14.131-.107.014 4.115-5.761zm-9.515-10h-3.485v-12h12.057zm-18.485 2h3v2h-2c-.552 0-1-.448-1-1zm5 0h8v2h-8zm8-7.999h-8v-2h8zm-8 1.999h8v4h-8zm10 6h3v1c0 .551-.448 1-1 1h-2zm-2-11.999h-8v-2h8zm-8-4.001v-2h8v2zm0-14h8v2h-8zm0 4h8v2h-8zm0 4h8v2h-8zm8-9.999h-8v-4h8zm-10 17.999v12h-3.486l-8.571-12zm-13 2.121 4.115 5.761-.107-.014-1.884 14.132h-2.124zm5.724 8.014 2.276 3.186v1.68c0 1.654 1.346 3 3 3h2v4h-8.858zm9.276 7.865h8v4h-8zm10 0h2c1.654 0 3-1.346 3-3v-1.679l2.276-3.186 1.581 11.866h-8.857zm13-37.999v18h-13v-20h11c1.103 0 2 .896 2 2zm-5-7v3h-8v-4h-2v4h-8v-4h-2v4h-8v-3c0-1.654 1.346-3 3-3h22c1.654 0 3 1.345 3 3zm-14-9c1.103 0 2 .897 2 2v2h-4v-2c0-1.104.897-2 2-2zm-25 58h-4v-4h4zm1-6.001h-2v-46.999c0-2.757 2.243-5 5-5h17.556c-.344.59-.556 1.268-.556 2v2h-7c-2.757 0-5 2.243-5 5v3h-1c-2.206 0-4 1.794-4 4v19 23h-2v-5c0-.553-.448-1.001-1-1.001zm47 3v3h-2v-22.998c0-.001 0-.002 0-.002v-1h2c.552 0 1 .448 1 1v19c-.553 0-1 .448-1 1zm6 3.001h-4v-2h4z"/></g></svg>